<svg width="300" height="135" viewBox="0 0 300 135" fill="none" xmlns="http://www.w3.org/2000/svg">
<path d="M47 19.8846C21.0426 19.8846 0 40.5226 0 65.9808V110.721C0 114.465 3.0945 117.5 6.91176 117.5H19.3529C27.7112 117.5 31.8894 112.625 35.7734 106.433C41.5622 97.2043 52.4378 97.2043 58.2267 106.433C62.1106 112.625 66.2888 117.5 74.6471 117.5H87.0882C90.9055 117.5 94 114.465 94 110.721V65.9808C94 40.5226 72.9574 19.8846 47 19.8846Z" fill="#8759F2"/>
<ellipse cx="47" cy="61.4615" rx="19.8846" ry="18.0769" fill="white"/>
<circle cx="56.9423" cy="60.5577" r="6.32692" fill="#221B43"/>
<rect x="19.8846" y="10.8462" width="5.42308" height="23.5" fill="#AFF860"/>
<path d="M123.504 99.7539H110.461V91.5273H123.504C125.52 91.5273 127.16 91.1992 128.426 90.543C129.691 89.8633 130.617 88.9258 131.203 87.7305C131.789 86.5352 132.082 85.1875 132.082 83.6875C132.082 82.1641 131.789 80.7461 131.203 79.4336C130.617 78.1211 129.691 77.0664 128.426 76.2695C127.16 75.4727 125.52 75.0742 123.504 75.0742H114.117V118H103.57V66.8125H123.504C127.512 66.8125 130.945 67.5391 133.805 68.9922C136.688 70.4219 138.891 72.4023 140.414 74.9336C141.938 77.4648 142.699 80.3594 142.699 83.6172C142.699 86.9219 141.938 89.7812 140.414 92.1953C138.891 94.6094 136.688 96.4727 133.805 97.7852C130.945 99.0977 127.512 99.7539 123.504 99.7539ZM192.023 91.2109V93.6367C192.023 97.5273 191.496 101.02 190.441 104.113C189.387 107.207 187.898 109.844 185.977 112.023C184.055 114.18 181.758 115.832 179.086 116.98C176.438 118.129 173.496 118.703 170.262 118.703C167.051 118.703 164.109 118.129 161.438 116.98C158.789 115.832 156.492 114.18 154.547 112.023C152.602 109.844 151.09 107.207 150.012 104.113C148.957 101.02 148.43 97.5273 148.43 93.6367V91.2109C148.43 87.2969 148.957 83.8047 150.012 80.7344C151.066 77.6406 152.555 75.0039 154.477 72.8242C156.422 70.6445 158.719 68.9805 161.367 67.832C164.039 66.6836 166.98 66.1094 170.191 66.1094C173.426 66.1094 176.367 66.6836 179.016 67.832C181.688 68.9805 183.984 70.6445 185.906 72.8242C187.852 75.0039 189.352 77.6406 190.406 80.7344C191.484 83.8047 192.023 87.2969 192.023 91.2109ZM181.371 93.6367V91.1406C181.371 88.4219 181.125 86.0312 180.633 83.9688C180.141 81.9062 179.414 80.1719 178.453 78.7656C177.492 77.3594 176.32 76.3047 174.938 75.6016C173.555 74.875 171.973 74.5117 170.191 74.5117C168.41 74.5117 166.828 74.875 165.445 75.6016C164.086 76.3047 162.926 77.3594 161.965 78.7656C161.027 80.1719 160.312 81.9062 159.82 83.9688C159.328 86.0312 159.082 88.4219 159.082 91.1406V93.6367C159.082 96.332 159.328 98.7227 159.82 100.809C160.312 102.871 161.039 104.617 162 106.047C162.961 107.453 164.133 108.52 165.516 109.246C166.898 109.973 168.48 110.336 170.262 110.336C172.043 110.336 173.625 109.973 175.008 109.246C176.391 108.52 177.551 107.453 178.488 106.047C179.426 104.617 180.141 102.871 180.633 100.809C181.125 98.7227 181.371 96.332 181.371 93.6367ZM232.523 109.773V118H206.754V109.773H232.523ZM210.164 66.8125V118H199.617V66.8125H210.164ZM249.785 66.8125V118H239.273V66.8125H249.785ZM286.312 104.605C286.312 103.691 286.172 102.871 285.891 102.145C285.633 101.395 285.141 100.715 284.414 100.105C283.688 99.4727 282.668 98.8516 281.355 98.2422C280.043 97.6328 278.344 97 276.258 96.3438C273.938 95.5938 271.734 94.75 269.648 93.8125C267.586 92.875 265.758 91.7852 264.164 90.543C262.594 89.2773 261.352 87.8125 260.438 86.1484C259.547 84.4844 259.102 82.5508 259.102 80.3477C259.102 78.2148 259.57 76.2812 260.508 74.5469C261.445 72.7891 262.758 71.2891 264.445 70.0469C266.133 68.7812 268.125 67.8086 270.422 67.1289C272.742 66.4492 275.285 66.1094 278.051 66.1094C281.824 66.1094 285.117 66.7891 287.93 68.1484C290.742 69.5078 292.922 71.3711 294.469 73.7383C296.039 76.1055 296.824 78.8125 296.824 81.8594H286.348C286.348 80.3594 286.031 79.0469 285.398 77.9219C284.789 76.7734 283.852 75.8711 282.586 75.2148C281.344 74.5586 279.773 74.2305 277.875 74.2305C276.047 74.2305 274.523 74.5117 273.305 75.0742C272.086 75.6133 271.172 76.3516 270.562 77.2891C269.953 78.2031 269.648 79.2344 269.648 80.3828C269.648 81.25 269.859 82.0352 270.281 82.7383C270.727 83.4414 271.383 84.0977 272.25 84.707C273.117 85.3164 274.184 85.8906 275.449 86.4297C276.715 86.9688 278.18 87.4961 279.844 88.0117C282.633 88.8555 285.082 89.8047 287.191 90.8594C289.324 91.9141 291.105 93.0977 292.535 94.4102C293.965 95.7227 295.043 97.2109 295.77 98.875C296.496 100.539 296.859 102.426 296.859 104.535C296.859 106.762 296.426 108.754 295.559 110.512C294.691 112.27 293.438 113.758 291.797 114.977C290.156 116.195 288.199 117.121 285.926 117.754C283.652 118.387 281.109 118.703 278.297 118.703C275.766 118.703 273.27 118.375 270.809 117.719C268.348 117.039 266.109 116.02 264.094 114.66C262.102 113.301 260.508 111.566 259.312 109.457C258.117 107.348 257.52 104.852 257.52 101.969H268.102C268.102 103.562 268.348 104.91 268.84 106.012C269.332 107.113 270.023 108.004 270.914 108.684C271.828 109.363 272.906 109.855 274.148 110.16C275.414 110.465 276.797 110.617 278.297 110.617C280.125 110.617 281.625 110.359 282.797 109.844C283.992 109.328 284.871 108.613 285.434 107.699C286.02 106.785 286.312 105.754 286.312 104.605Z" fill="#8759F2"/>
<rect x="70.5" y="10.8462" width="5.42308" height="23.5" fill="#AFF860"/>
<ellipse cx="73.2115" cy="8.13461" rx="6.32692" ry="8.13461" fill="#AFF860"/>
<circle cx="22.5962" cy="8.13461" r="8.13461" fill="#AFF860"/>
</svg>
